# This file uses centimeters as units for non-parametric coordinates.

mtllib SM_Book3.mtl
g default
v -1.052798 -1.053016 0.151174
v 1.053233 -1.053016 0.151174
v -1.052798 1.053016 0.151174
v 1.053233 1.053016 0.151174
v -1.052798 1.053016 -0.151174
v 1.053233 1.053016 -0.151174
v -1.052798 -1.053016 -0.151174
v 1.053233 -1.053016 -0.151174
v -1.154235 -1.146138 0.220538
v 1.153887 -1.146138 0.220539
v 1.153887 1.146138 0.220539
v -1.154235 1.146138 0.220538
v -1.154235 1.146138 -0.220538
v 1.153887 1.146138 -0.220539
v 1.153887 -1.146138 -0.220539
v -1.154235 -1.146138 -0.220538
v -1.052798 -1.146138 0.151174
v 1.153887 -1.146138 0.151174
v -1.052798 -1.146138 -0.151174
v 1.153887 -1.146138 -0.151174
v -1.052798 1.146138 0.151174
v 1.153887 1.146138 0.151174
v -1.052798 1.146138 -0.151174
v 1.153887 1.146138 -0.151174
vt 0.879744 0.887273
vt 0.828716 0.889189
vt 0.965469 0.887960
vt 0.916440 0.887308
vt 0.965302 0.888159
vt 0.916286 0.889076
vt 0.959911 0.892791
vt 0.923130 0.891969
vt 0.828853 0.889428
vt 0.879866 0.889038
vt 0.872983 0.891826
vt 0.834880 0.893638
vt 0.872752 0.935126
vt 0.835782 0.933516
vt 0.923313 0.935217
vt 0.916551 0.939772
vt 0.967842 0.936828
vt 0.830114 0.938184
vt 0.879453 0.939779
vt 0.916403 0.938009
vt 0.967704 0.936594
vt 0.961583 0.932532
vt 0.879628 0.938012
vt 0.830282 0.937997
vt 0.956789 0.788871
vt 0.980014 0.788875
vt 0.956796 0.742421
vt 0.956792 0.765646
vt 0.980025 0.719200
vt 0.956799 0.719196
vt 0.980017 0.765650
vt 0.980021 0.742425
vn -0.000000 0.000000 1.000000
vn -0.000000 0.000000 1.000000
vn -0.000000 0.000000 1.000000
vn -0.000000 0.000000 1.000000
vn 0.000000 1.000000 0.000000
vn 0.000000 1.000000 0.000000
vn 0.000000 1.000000 0.000000
vn 0.000000 1.000000 0.000000
vn -0.000000 0.000000 -1.000000
vn -0.000000 0.000000 -1.000000
vn -0.000000 0.000000 -1.000000
vn -0.000000 0.000000 -1.000000
vn 0.000000 -1.000000 0.000000
vn 0.000000 -1.000000 0.000000
vn 0.000000 -1.000000 0.000000
vn 0.000000 -1.000000 0.000000
vn 1.000000 0.000000 0.000000
vn 1.000000 0.000000 0.000000
vn 1.000000 0.000000 0.000000
vn 1.000000 0.000000 0.000000
vn -1.000000 0.000000 0.000000
vn -1.000000 0.000000 0.000000
vn -1.000000 0.000000 0.000000
vn -1.000000 0.000000 0.000000
vn 0.000000 -1.000000 -0.000001
vn 0.000000 -1.000000 -0.000001
vn 0.000000 -1.000000 -0.000001
vn 0.000000 -1.000000 -0.000001
vn 1.000000 0.000000 0.000000
vn 1.000000 0.000000 0.000000
vn 1.000000 0.000000 0.000000
vn 1.000000 0.000000 0.000000
vn 0.000000 1.000000 0.000000
vn 0.000000 1.000000 0.000000
vn 0.000000 1.000000 0.000000
vn 0.000000 1.000000 0.000000
vn 0.000000 1.000000 0.000001
vn 0.000000 1.000000 0.000001
vn 0.000000 1.000000 0.000001
vn 0.000000 1.000000 0.000001
vn 1.000000 0.000000 0.000000
vn 1.000000 0.000000 0.000000
vn 1.000000 0.000000 0.000000
vn 1.000000 0.000000 0.000000
vn 0.000000 -1.000000 0.000000
vn 0.000000 -1.000000 0.000000
vn 0.000000 -1.000000 0.000000
vn 0.000000 -1.000000 0.000000
vn 0.000000 -1.000000 0.000000
vn 0.000000 -1.000000 0.000000
vn 0.000000 -1.000000 0.000000
vn 0.000000 -1.000000 0.000000
vn 0.000000 1.000000 0.000000
vn 0.000000 1.000000 0.000000
vn 0.000000 1.000000 0.000000
vn 0.000000 1.000000 0.000000
vn 0.000000 0.000000 -1.000000
vn 0.000000 0.000000 -1.000000
vn 0.000000 0.000000 -1.000000
vn 0.000000 0.000000 -1.000000
vn 0.000000 0.000000 1.000000
vn 0.000000 0.000000 1.000000
vn 0.000000 0.000000 1.000000
vn 0.000000 0.000000 1.000000
vn 1.000000 0.000000 0.000000
vn 1.000000 0.000000 0.000000
vn 1.000000 0.000000 0.000000
vn 1.000000 0.000000 0.000000
vn 0.000000 0.000000 -1.000000
vn 0.000000 0.000000 -1.000000
vn 0.000000 0.000000 -1.000000
vn 0.000000 0.000000 -1.000000
vn 0.000000 0.000000 1.000000
vn 0.000000 0.000000 1.000000
vn 0.000000 0.000000 1.000000
vn 0.000000 0.000000 1.000000
vn 1.000000 0.000000 0.000000
vn 1.000000 0.000000 0.000000
vn 1.000000 0.000000 0.000000
vn 1.000000 0.000000 0.000000
vn 0.000000 0.000000 -1.000000
vn 0.000000 0.000000 -1.000000
vn 0.000000 0.000000 -1.000000
vn 0.000000 0.000000 -1.000000
vn 0.000000 0.000000 1.000000
vn 0.000000 0.000000 1.000000
vn 0.000000 0.000000 1.000000
vn 0.000000 0.000000 1.000000
s off
g pCube4
usemtl lambert7SG
f 9/8/1 10/7/2 11/22/3 12/15/4
f 3/29/5 4/32/6 6/27/7 5/30/8
f 13/13/9 14/14/10 15/12/11 16/11/12
f 7/25/13 8/28/14 2/31/15 1/26/16
f 2/31/17 8/28/18 6/27/19 4/32/20
f 16/11/21 9/8/22 12/15/23 13/13/24
f 17/6/25 18/5/26 10/7/27 9/8/28
f 18/5/29 22/21/30 11/22/31 10/7/32
f 22/21/33 21/20/34 12/15/35 11/22/36
f 23/23/37 24/24/38 14/14/39 13/13/40
f 24/24/41 20/9/42 15/12/43 14/14/44
f 20/9/45 19/10/46 16/11/47 15/12/48
f 19/10/49 17/6/50 9/8/51 16/11/52
f 21/20/53 23/23/54 13/13/55 12/15/56
f 1/4/57 2/3/58 18/5/59 17/6/60
f 8/2/61 7/1/62 19/10/63 20/9/64
f 7/1/65 1/4/66 17/6/67 19/10/68
f 4/17/69 3/16/70 21/20/71 22/21/72
f 5/19/73 6/18/74 24/24/75 23/23/76
f 3/16/77 5/19/78 23/23/79 21/20/80
f 2/3/81 4/17/82 22/21/83 18/5/84
f 6/18/85 8/2/86 20/9/87 24/24/88
