# This file uses centimeters as units for non-parametric coordinates.

mtllib SM_Book4.mtl
g default
v -1.189828 -1.321031 0.290271
v 1.190319 -1.321031 0.290271
v -1.189828 1.321031 0.290271
v 1.190319 1.321031 0.290271
v -1.189828 1.321031 -0.290271
v 1.190319 1.321031 -0.290271
v -1.189828 -1.321031 -0.290271
v 1.190319 -1.321031 -0.290271
v -1.304467 -1.437855 0.423460
v 1.304074 -1.437855 0.423461
v 1.304074 1.437855 0.423461
v -1.304467 1.437855 0.423460
v -1.304467 1.437855 -0.423460
v 1.304074 1.437855 -0.423461
v 1.304074 -1.437855 -0.423461
v -1.304467 -1.437855 -0.423460
v -1.189828 -1.437855 0.290271
v 1.304074 -1.437855 0.290271
v -1.189828 -1.437855 -0.290271
v 1.304074 -1.437855 -0.290271
v -1.189828 1.437855 0.290271
v 1.304074 1.437855 0.290271
v -1.189828 1.437855 -0.290271
v 1.304074 1.437855 -0.290271
vt 0.728386 0.887719
vt 0.677358 0.889635
vt 0.814111 0.888406
vt 0.765081 0.887754
vt 0.813944 0.888605
vt 0.764928 0.889523
vt 0.808553 0.893237
vt 0.771772 0.892415
vt 0.677494 0.889874
vt 0.728508 0.889484
vt 0.721625 0.892272
vt 0.683521 0.894084
vt 0.721393 0.935572
vt 0.684424 0.933962
vt 0.771955 0.935663
vt 0.765193 0.940218
vt 0.816484 0.937274
vt 0.678756 0.938630
vt 0.728094 0.940225
vt 0.765044 0.938455
vt 0.816346 0.937040
vt 0.810224 0.932978
vt 0.728270 0.938458
vt 0.678923 0.938443
vt 0.646310 0.725761
vt 0.669535 0.725765
vt 0.646317 0.679311
vt 0.646314 0.702536
vt 0.669546 0.656089
vt 0.646321 0.656085
vt 0.669539 0.702539
vt 0.669542 0.679314
vn -0.000000 0.000000 1.000000
vn -0.000000 0.000000 1.000000
vn -0.000000 0.000000 1.000000
vn -0.000000 0.000000 1.000000
vn 0.000000 1.000000 0.000000
vn 0.000000 1.000000 0.000000
vn 0.000000 1.000000 0.000000
vn 0.000000 1.000000 0.000000
vn -0.000000 0.000000 -1.000000
vn -0.000000 0.000000 -1.000000
vn -0.000000 0.000000 -1.000000
vn -0.000000 0.000000 -1.000000
vn 0.000000 -1.000000 0.000000
vn 0.000000 -1.000000 0.000000
vn 0.000000 -1.000000 0.000000
vn 0.000000 -1.000000 0.000000
vn 1.000000 0.000000 0.000000
vn 1.000000 0.000000 0.000000
vn 1.000000 0.000000 0.000000
vn 1.000000 0.000000 0.000000
vn -1.000000 0.000000 0.000000
vn -1.000000 0.000000 0.000000
vn -1.000000 0.000000 0.000000
vn -1.000000 0.000000 0.000000
vn 0.000000 -1.000000 0.000000
vn 0.000000 -1.000000 0.000000
vn 0.000000 -1.000000 0.000000
vn 0.000000 -1.000000 0.000000
vn 1.000000 0.000000 0.000000
vn 1.000000 0.000000 0.000000
vn 1.000000 0.000000 0.000000
vn 1.000000 0.000000 0.000000
vn 0.000000 1.000000 0.000000
vn 0.000000 1.000000 0.000000
vn 0.000000 1.000000 0.000000
vn 0.000000 1.000000 0.000000
vn 0.000000 1.000000 -0.000000
vn 0.000000 1.000000 -0.000000
vn 0.000000 1.000000 -0.000000
vn 0.000000 1.000000 -0.000000
vn 1.000000 0.000000 0.000000
vn 1.000000 0.000000 0.000000
vn 1.000000 0.000000 0.000000
vn 1.000000 0.000000 0.000000
vn 0.000000 -1.000000 0.000000
vn 0.000000 -1.000000 0.000000
vn 0.000000 -1.000000 0.000000
vn 0.000000 -1.000000 0.000000
vn 0.000000 -1.000000 0.000000
vn 0.000000 -1.000000 0.000000
vn 0.000000 -1.000000 0.000000
vn 0.000000 -1.000000 0.000000
vn 0.000000 1.000000 0.000000
vn 0.000000 1.000000 0.000000
vn 0.000000 1.000000 0.000000
vn 0.000000 1.000000 0.000000
vn 0.000000 0.000000 -1.000000
vn 0.000000 0.000000 -1.000000
vn 0.000000 0.000000 -1.000000
vn 0.000000 0.000000 -1.000000
vn 0.000000 0.000000 1.000000
vn 0.000000 0.000000 1.000000
vn 0.000000 0.000000 1.000000
vn 0.000000 0.000000 1.000000
vn 1.000000 0.000000 0.000000
vn 1.000000 0.000000 0.000000
vn 1.000000 0.000000 0.000000
vn 1.000000 0.000000 0.000000
vn 0.000000 0.000000 -1.000000
vn 0.000000 0.000000 -1.000000
vn 0.000000 0.000000 -1.000000
vn 0.000000 0.000000 -1.000000
vn 0.000000 0.000000 1.000000
vn 0.000000 0.000000 1.000000
vn 0.000000 0.000000 1.000000
vn 0.000000 0.000000 1.000000
vn 1.000000 0.000000 0.000000
vn 1.000000 0.000000 0.000000
vn 1.000000 0.000000 0.000000
vn 1.000000 0.000000 0.000000
vn 0.000000 0.000000 -1.000000
vn 0.000000 0.000000 -1.000000
vn 0.000000 0.000000 -1.000000
vn 0.000000 0.000000 -1.000000
vn 0.000000 0.000000 1.000000
vn 0.000000 0.000000 1.000000
vn 0.000000 0.000000 1.000000
vn 0.000000 0.000000 1.000000
s off
g pCube7
usemtl lambert7SG
f 9/8/1 10/7/2 11/22/3 12/15/4
f 3/29/5 4/32/6 6/27/7 5/30/8
f 13/13/9 14/14/10 15/12/11 16/11/12
f 7/25/13 8/28/14 2/31/15 1/26/16
f 2/31/17 8/28/18 6/27/19 4/32/20
f 16/11/21 9/8/22 12/15/23 13/13/24
f 17/6/25 18/5/26 10/7/27 9/8/28
f 18/5/29 22/21/30 11/22/31 10/7/32
f 22/21/33 21/20/34 12/15/35 11/22/36
f 23/23/37 24/24/38 14/14/39 13/13/40
f 24/24/41 20/9/42 15/12/43 14/14/44
f 20/9/45 19/10/46 16/11/47 15/12/48
f 19/10/49 17/6/50 9/8/51 16/11/52
f 21/20/53 23/23/54 13/13/55 12/15/56
f 1/4/57 2/3/58 18/5/59 17/6/60
f 8/2/61 7/1/62 19/10/63 20/9/64
f 7/1/65 1/4/66 17/6/67 19/10/68
f 4/17/69 3/16/70 21/20/71 22/21/72
f 5/19/73 6/18/74 24/24/75 23/23/76
f 3/16/77 5/19/78 23/23/79 21/20/80
f 2/3/81 4/17/82 22/21/83 18/5/84
f 6/18/85 8/2/86 20/9/87 24/24/88
