# This file uses centimeters as units for non-parametric coordinates.

mtllib SM_Pill_Label.mtl
g default
v 0.334464 -0.490872 -0.108674
v 0.284512 -0.490872 -0.206712
v 0.288987 -0.227384 -0.209962
v 0.339724 -0.227384 -0.110384
v 0.206711 -0.490872 -0.284514
v 0.209962 -0.227384 -0.288988
v 0.108674 -0.490872 -0.334465
v 0.110384 -0.227384 -0.339724
v -0.000000 -0.490872 -0.351679
v -0.000000 -0.227384 -0.357210
v -0.108674 -0.490872 -0.334465
v -0.110384 -0.227384 -0.339724
v -0.206711 -0.490872 -0.284514
v -0.209962 -0.227384 -0.288988
v -0.284514 -0.490872 -0.206712
v -0.288987 -0.227384 -0.209962
v -0.334464 -0.490872 -0.108674
v -0.339724 -0.227384 -0.110384
v -0.351679 -0.490872 -0.000000
v -0.357209 -0.227384 -0.000000
v -0.334464 -0.490872 0.108674
v -0.339724 -0.227384 0.110384
v -0.284514 -0.490872 0.206711
v -0.288987 -0.227384 0.209962
v -0.206711 -0.490872 0.284514
v -0.209962 -0.227384 0.288987
v -0.108674 -0.490872 0.334464
v -0.110384 -0.227384 0.339724
v -0.000000 -0.490872 0.351678
v -0.000000 -0.227384 0.357209
v 0.108674 -0.490872 0.334464
v 0.110384 -0.227384 0.339724
v 0.206711 -0.490872 0.284514
v 0.209962 -0.227384 0.288987
v 0.284512 -0.490872 0.206711
v 0.288987 -0.227384 0.209962
v 0.334464 -0.490872 0.108674
v 0.339724 -0.227384 0.110384
v 0.351676 -0.490872 -0.000000
v 0.357207 -0.227384 -0.000000
v 0.284512 0.026338 -0.206712
v 0.334464 0.026338 -0.108674
v 0.206711 0.026338 -0.284514
v 0.108674 0.026338 -0.334465
v -0.000000 0.026338 -0.351679
v -0.108674 0.026338 -0.334465
v -0.206711 0.026338 -0.284514
v -0.284514 0.026338 -0.206712
v -0.334464 0.026338 -0.108674
v -0.351679 0.026338 -0.000000
v -0.334464 0.026338 0.108674
v -0.284514 0.026338 0.206711
v -0.206711 0.026338 0.284514
v -0.108674 0.026338 0.334464
v -0.000000 0.026338 0.351678
v 0.108674 0.026338 0.334464
v 0.206711 0.026338 0.284514
v 0.284512 0.026338 0.206711
v 0.334464 0.026338 0.108674
v 0.351676 0.026338 -0.000000
v 0.345936 -0.519737 -0.112402
v 0.294271 -0.519737 -0.213801
v 0.213800 -0.519737 -0.294271
v 0.112401 -0.519737 -0.345937
v -0.000000 -0.519737 -0.363738
v -0.112401 -0.519737 -0.345937
v -0.213800 -0.519737 -0.294271
v -0.294271 -0.519737 -0.213801
v -0.345936 -0.519737 -0.112402
v -0.363738 -0.519737 -0.000000
v -0.345936 -0.519737 0.112401
v -0.294271 -0.519737 0.213800
v -0.213800 -0.519737 0.294270
v -0.000000 -0.519737 0.363738
v 0.112401 -0.519737 0.345936
v 0.213800 -0.519737 0.294270
v 0.294271 -0.519737 0.213800
v 0.345936 -0.519737 0.112401
v 0.363738 -0.519737 -0.000000
v 0.294271 0.050851 -0.213801
v 0.345936 0.050851 -0.112402
v 0.213800 0.050851 -0.294271
v 0.112401 0.050851 -0.345937
v -0.000000 0.050851 -0.363738
v -0.112401 0.050851 -0.345937
v -0.213800 0.050851 -0.294271
v -0.294271 0.050851 -0.213801
v -0.345936 0.050851 -0.112402
v -0.363738 0.050851 -0.000000
v -0.345936 0.050851 0.112401
v -0.294271 0.050851 0.213800
v -0.213800 0.050851 0.294270
v -0.112401 0.050851 0.345936
v -0.000000 0.050851 0.363738
v 0.112401 0.050851 0.345936
v 0.213800 0.050851 0.294270
v 0.294271 0.050851 0.213800
v 0.345936 0.050851 0.112401
v 0.363738 0.050851 -0.000000
v 0.337222 0.038389 -0.109569
v 0.286859 0.038389 -0.208414
v 0.208414 0.038389 -0.286859
v 0.109569 0.038389 -0.337222
v -0.000000 0.038389 -0.354576
v -0.109571 0.038389 -0.337222
v -0.208414 0.038389 -0.286859
v -0.286859 0.038389 -0.208414
v -0.337222 0.038389 -0.109569
v -0.354575 0.038389 -0.000000
v -0.337222 0.038389 0.109569
v -0.286859 0.038389 0.208414
v -0.208414 0.038389 0.286859
v -0.109571 0.038389 0.337222
v -0.000000 0.038389 0.354575
v 0.109569 0.038389 0.337222
v 0.208414 0.038389 0.286859
v 0.286857 0.038389 0.208414
v 0.337222 0.038389 0.109569
v 0.354575 0.038389 -0.000000
v 0.289488 -0.506660 -0.210326
v 0.340315 -0.506660 -0.110575
v 0.357828 -0.506660 -0.000000
v 0.340315 -0.506660 0.110575
v 0.289488 -0.506660 0.210326
v 0.210326 -0.506660 0.289488
v 0.110575 -0.506660 0.340315
v -0.000000 -0.506660 0.357828
v -0.210326 -0.506660 0.289488
v -0.289488 -0.506660 0.210326
v -0.340315 -0.506660 0.110575
v -0.357828 -0.506660 -0.000000
v -0.340315 -0.506660 -0.110575
v -0.289488 -0.506660 -0.210326
v -0.210326 -0.506660 -0.289488
v -0.110575 -0.506660 -0.340315
v -0.000000 -0.506660 -0.357829
v 0.110575 -0.506660 -0.340315
v 0.210326 -0.506660 -0.289488
v 0.294271 -0.572916 -0.213801
v 0.345936 -0.572916 -0.112402
v 0.363738 -0.572916 -0.000000
v 0.345936 -0.572916 0.112401
v 0.294271 -0.572916 0.213800
v 0.213800 -0.572916 0.294270
v 0.112401 -0.572916 0.345936
v -0.000000 -0.572916 0.363738
v -0.213800 -0.572916 0.294270
v -0.294271 -0.572916 0.213800
v -0.345936 -0.572916 0.112401
v -0.363738 -0.572916 -0.000000
v -0.345936 -0.572916 -0.112402
v -0.294271 -0.572916 -0.213801
v -0.213800 -0.572916 -0.294271
v -0.112401 -0.572916 -0.345937
v -0.000000 -0.572916 -0.363738
v 0.112401 -0.572916 -0.345937
v 0.213800 -0.572916 -0.294271
v -0.048176 -0.490872 0.344047
v -0.042105 -0.506660 0.351159
v -0.045387 -0.519737 0.356550
v -0.078591 -0.407813 0.340974
v -0.073047 -0.419465 0.341606
v -0.071792 -0.438437 0.341408
v -0.068352 -0.455356 0.341596
v -0.053453 -0.469737 0.343654
v -0.032225 -0.529183 0.358635
v -0.036221 -0.541744 0.358002
v -0.028457 -0.546176 0.359232
v -0.019920 -0.547006 0.360583
v -0.014272 -0.557246 0.361478
v -0.122907 -0.506660 0.334031
v -0.138394 -0.519737 0.332692
v -0.181920 -0.572917 0.310514
v -0.120567 -0.497611 0.331316
v -0.131775 -0.512005 0.332190
v -0.154662 -0.533202 0.324403
v -0.158724 -0.544738 0.322335
v -0.171245 -0.552253 0.315952
v 0.354837 0.050851 -0.056201
v 0.345899 0.038389 -0.054785
v 0.343070 0.026338 -0.054337
v 0.348466 -0.227384 -0.055192
v 0.343070 -0.490872 -0.054337
v 0.349072 -0.506660 -0.055288
v 0.354837 -0.519737 -0.056201
v 0.354837 -0.572916 -0.056201
v 0.351277 -0.572916 -0.078681
v 0.351277 -0.519737 -0.078681
v 0.345569 -0.506660 -0.077403
v 0.339628 -0.490872 -0.076072
v 0.344969 -0.227384 -0.077269
v 0.339628 0.026338 -0.076072
v 0.342428 0.038389 -0.076698
v 0.351277 0.050851 -0.078681
v 0.358398 0.050851 -0.033721
v 0.349369 0.038389 -0.032871
v 0.346512 0.026338 -0.032602
v 0.351962 -0.227384 -0.033115
v 0.346512 -0.490872 -0.032602
v 0.352574 -0.506660 -0.033173
v 0.358398 -0.519737 -0.033721
v 0.358398 -0.572917 -0.033721
vt 0.121277 0.223825
vt 0.162980 0.223813
vt 0.163024 0.543470
vt 0.121321 0.543482
vt 0.204690 0.223800
vt 0.204734 0.543457
vt 0.247143 0.223788
vt 0.247187 0.543445
vt 0.287998 0.223776
vt 0.288042 0.543432
vt 0.329568 0.223763
vt 0.329612 0.543420
vt 0.371068 0.223750
vt 0.371112 0.543407
vt 0.412537 0.223738
vt 0.412581 0.543395
vt 0.454004 0.223725
vt 0.454047 0.543382
vt 0.495488 0.223713
vt 0.495532 0.543370
vt 0.537018 0.223701
vt 0.537062 0.543357
vt 0.578584 0.223688
vt 0.578628 0.543345
vt 0.619949 0.223675
vt 0.619993 0.543332
vt 0.667206 0.223661
vt 0.667250 0.543318
vt 0.676087 0.326987
vt 0.689664 0.318161
vt 0.691180 0.300199
vt 0.695171 0.281051
vt 0.681718 0.259876
vt 0.681713 0.222126
vt 0.700732 0.222120
vt 0.700776 0.543308
vt 0.742685 0.222108
vt 0.742729 0.543296
vt 0.784500 0.222095
vt 0.784543 0.543283
vt 0.826309 0.222082
vt 0.826353 0.543270
vt 0.868216 0.222070
vt 0.868260 0.543258
vt 0.910100 0.222057
vt 0.910144 0.543245
vt 0.163066 0.852274
vt 0.121363 0.852287
vt 0.204776 0.852262
vt 0.247229 0.852249
vt 0.288084 0.852237
vt 0.329654 0.852224
vt 0.371154 0.852212
vt 0.412623 0.852199
vt 0.454090 0.852187
vt 0.495574 0.852174
vt 0.537104 0.852162
vt 0.578670 0.852149
vt 0.620035 0.852137
vt 0.667292 0.852123
vt 0.700818 0.852113
vt 0.742771 0.852100
vt 0.784586 0.852088
vt 0.826395 0.852075
vt 0.868302 0.852062
vt 0.910186 0.852050
vt 0.121272 0.185453
vt 0.162975 0.185441
vt 0.162978 0.203118
vt 0.121274 0.203130
vt 0.204685 0.185428
vt 0.204687 0.203105
vt 0.247138 0.185415
vt 0.247140 0.203093
vt 0.287993 0.185403
vt 0.287996 0.203080
vt 0.329563 0.185391
vt 0.329565 0.203068
vt 0.371063 0.185378
vt 0.371065 0.203055
vt 0.412532 0.185366
vt 0.412534 0.203043
vt 0.453998 0.185353
vt 0.454001 0.203030
vt 0.495483 0.185341
vt 0.495486 0.203018
vt 0.537013 0.185328
vt 0.537016 0.203005
vt 0.578579 0.185316
vt 0.578581 0.202993
vt 0.619944 0.185303
vt 0.619946 0.202980
vt 0.681710 0.201806
vt 0.681707 0.184572
vt 0.700727 0.184567
vt 0.700729 0.201801
vt 0.742680 0.184554
vt 0.742682 0.201788
vt 0.784494 0.184542
vt 0.784497 0.201775
vt 0.826304 0.184529
vt 0.826307 0.201763
vt 0.868211 0.184517
vt 0.868213 0.201750
vt 0.910095 0.184504
vt 0.910097 0.201738
vt 0.163071 0.885544
vt 0.121368 0.885557
vt 0.121365 0.867021
vt 0.163068 0.867009
vt 0.204781 0.885532
vt 0.204778 0.866996
vt 0.247234 0.885519
vt 0.247231 0.866983
vt 0.288089 0.885507
vt 0.288086 0.866971
vt 0.329659 0.885494
vt 0.329656 0.866959
vt 0.371158 0.885482
vt 0.371156 0.866946
vt 0.412628 0.885469
vt 0.412625 0.866934
vt 0.454094 0.885457
vt 0.454092 0.866921
vt 0.495579 0.885444
vt 0.495576 0.866909
vt 0.537109 0.885432
vt 0.537106 0.866896
vt 0.578675 0.885419
vt 0.578672 0.866884
vt 0.620040 0.885407
vt 0.620037 0.866871
vt 0.667297 0.885393
vt 0.667294 0.866857
vt 0.700822 0.885382
vt 0.700820 0.866847
vt 0.742775 0.885370
vt 0.742773 0.866834
vt 0.784590 0.885357
vt 0.784588 0.866822
vt 0.826400 0.885345
vt 0.826397 0.866809
vt 0.868307 0.885332
vt 0.868304 0.866797
vt 0.910190 0.885319
vt 0.910188 0.866784
vt 0.121263 0.119424
vt 0.162966 0.119411
vt 0.868202 0.117432
vt 0.910085 0.117420
vt 0.826295 0.117445
vt 0.784485 0.117457
vt 0.742670 0.117470
vt 0.700717 0.117483
vt 0.685483 0.184233
vt 0.685481 0.169458
vt 0.687267 0.162254
vt 0.691346 0.162253
vt 0.691344 0.148312
vt 0.578570 0.119286
vt 0.619935 0.119274
vt 0.537004 0.119298
vt 0.495474 0.119311
vt 0.453989 0.119323
vt 0.412523 0.119336
vt 0.371054 0.119348
vt 0.329554 0.119361
vt 0.287984 0.119373
vt 0.247129 0.119386
vt 0.204676 0.119399
vt 0.655645 0.202970
vt 0.655648 0.227060
vt 0.650776 0.185294
vt 0.652600 0.208129
vt 0.636022 0.119269
vt 0.636027 0.156694
vt 0.643684 0.166446
vt 0.643686 0.180585
vt 0.922694 0.885316
vt 0.930994 0.885313
vt 0.930991 0.866778
vt 0.922691 0.866780
vt 0.922689 0.852046
vt 0.930989 0.852044
vt 0.922647 0.543241
vt 0.930947 0.543239
vt 0.922603 0.222053
vt 0.930903 0.222051
vt 0.930900 0.201731
vt 0.922600 0.201734
vt 0.922598 0.184500
vt 0.930898 0.184498
vt 0.922589 0.117416
vt 0.930889 0.117413
vt 0.108792 0.185457
vt 0.108783 0.119427
vt 0.108794 0.203134
vt 0.108797 0.223829
vt 0.108841 0.543486
vt 0.108883 0.852291
vt 0.108885 0.867025
vt 0.108888 0.885560
vn 0.950847 -0.020986 -0.308948
vn 0.808839 -0.020986 -0.587656
vn 0.809017 -0.000001 -0.587785
vn 0.951057 -0.000001 -0.309016
vn 0.587655 -0.020986 -0.808839
vn 0.587785 -0.000001 -0.809017
vn 0.308949 -0.020986 -0.950847
vn 0.309017 -0.000001 -0.951056
vn 0.000000 -0.020986 -0.999780
vn 0.000000 -0.000001 -1.000000
vn -0.308949 -0.020985 -0.950847
vn -0.309017 -0.000001 -0.951056
vn -0.587656 -0.020985 -0.808839
vn -0.587785 -0.000001 -0.809017
vn -0.808839 -0.020985 -0.587656
vn -0.809017 -0.000001 -0.587785
vn -0.950847 -0.020986 -0.308949
vn -0.951056 -0.000001 -0.309017
vn -0.999780 -0.020986 0.000000
vn -1.000000 -0.000001 0.000000
vn -0.950847 -0.020986 0.308949
vn -0.951056 -0.000001 0.309017
vn -0.808839 -0.020985 0.587656
vn -0.809017 -0.000001 0.587785
vn -0.587655 -0.020985 0.808839
vn -0.587785 -0.000001 0.809017
vn -0.308949 -0.020985 0.950847
vn -0.309017 -0.000001 0.951056
vn -0.156419 -0.020728 0.987473
vn -0.156419 -0.020728 0.987473
vn -0.156419 -0.020728 0.987473
vn -0.156419 -0.020728 0.987473
vn -0.156419 -0.020728 0.987473
vn -0.156437 -0.013799 0.987592
vn 0.000000 -0.020986 0.999780
vn 0.000000 -0.000001 1.000000
vn 0.308949 -0.020985 0.950847
vn 0.309017 -0.000001 0.951056
vn 0.587656 -0.020985 0.808839
vn 0.587785 -0.000001 0.809017
vn 0.808839 -0.020985 0.587656
vn 0.809017 -0.000001 0.587785
vn 0.950847 -0.020985 0.308949
vn 0.951056 -0.000001 0.309017
vn 0.999780 -0.020986 0.000001
vn 1.000000 -0.000001 0.000001
vn 0.808825 0.021793 -0.587646
vn 0.950831 0.021793 -0.308943
vn 0.587646 0.021793 -0.808825
vn 0.308943 0.021793 -0.950831
vn 0.000000 0.021793 -0.999763
vn -0.308944 0.021793 -0.950831
vn -0.587646 0.021793 -0.808825
vn -0.808825 0.021793 -0.587646
vn -0.950831 0.021793 -0.308944
vn -0.999763 0.021793 0.000000
vn -0.950831 0.021793 0.308944
vn -0.808825 0.021793 0.587646
vn -0.587646 0.021793 0.808825
vn -0.308944 0.021793 0.950831
vn 0.000000 0.021793 0.999763
vn 0.308944 0.021793 0.950831
vn 0.587646 0.021793 0.808825
vn 0.808825 0.021793 0.587646
vn 0.950831 0.021793 0.308944
vn 0.999763 0.021793 0.000001
vn 0.866651 0.411852 -0.281591
vn 0.737217 0.411852 -0.535620
vn 0.746096 0.386653 -0.542070
vn 0.877088 0.386654 -0.284982
vn 0.535619 0.411853 -0.737217
vn 0.542070 0.386654 -0.746095
vn 0.281592 0.411853 -0.866651
vn 0.284982 0.386654 -0.877088
vn 0.000000 0.411854 -0.911250
vn 0.000000 0.386654 -0.922225
vn -0.281593 0.411854 -0.866650
vn -0.284983 0.386656 -0.877087
vn -0.535620 0.411852 -0.737217
vn -0.542070 0.386654 -0.746095
vn -0.737217 0.411852 -0.535620
vn -0.746096 0.386654 -0.542070
vn -0.866651 0.411853 -0.281592
vn -0.877088 0.386654 -0.284983
vn -0.911250 0.411853 0.000000
vn -0.922225 0.386654 0.000000
vn -0.866651 0.411853 0.281592
vn -0.877088 0.386654 0.284983
vn -0.737217 0.411853 0.535620
vn -0.746095 0.386654 0.542070
vn -0.535620 0.411852 0.737217
vn -0.542070 0.386654 0.746095
vn -0.144731 0.379588 0.913765
vn -0.152511 0.222442 0.962944
vn 0.000000 0.411852 0.911251
vn 0.000000 0.386655 0.922224
vn 0.281592 0.411853 0.866651
vn 0.284983 0.386654 0.877088
vn 0.535620 0.411852 0.737217
vn 0.542070 0.386654 0.746095
vn 0.737218 0.411851 0.535619
vn 0.746096 0.386654 0.542070
vn 0.866651 0.411851 0.281592
vn 0.877088 0.386654 0.284983
vn 0.911251 0.411852 0.000001
vn 0.922225 0.386654 0.000001
vn 0.651823 -0.592326 -0.473578
vn 0.766266 -0.592325 -0.248973
vn 0.849290 -0.450065 -0.275950
vn 0.722449 -0.450065 -0.524889
vn 0.473577 -0.592326 -0.651824
vn 0.524890 -0.450066 -0.722448
vn 0.248974 -0.592325 -0.766266
vn 0.275951 -0.450066 -0.849289
vn 0.000000 -0.592325 -0.805699
vn 0.000000 -0.450066 -0.892996
vn -0.248974 -0.592326 -0.766265
vn -0.275951 -0.450066 -0.849289
vn -0.473577 -0.592327 -0.651823
vn -0.524890 -0.450066 -0.722448
vn -0.651823 -0.592326 -0.473578
vn -0.722449 -0.450065 -0.524889
vn -0.766265 -0.592325 -0.248975
vn -0.849289 -0.450066 -0.275951
vn -0.805699 -0.592326 0.000000
vn -0.892996 -0.450066 0.000000
vn -0.766264 -0.592327 0.248974
vn -0.849289 -0.450066 0.275951
vn -0.651823 -0.592327 0.473577
vn -0.722449 -0.450065 0.524889
vn -0.473578 -0.592325 0.651824
vn -0.524889 -0.450066 0.722449
vn -0.248974 -0.592326 0.766265
vn -0.275951 -0.450066 0.849289
vn 0.000000 -0.592326 0.805698
vn 0.000000 -0.450066 0.892995
vn 0.248974 -0.592326 0.766265
vn 0.275951 -0.450066 0.849289
vn 0.473578 -0.592326 0.651823
vn 0.524890 -0.450065 0.722449
vn 0.651823 -0.592326 0.473578
vn 0.722449 -0.450065 0.524890
vn 0.766265 -0.592326 0.248974
vn 0.849289 -0.450066 0.275951
vn 0.805699 -0.592325 0.000001
vn 0.892996 -0.450065 0.000001
vn 0.921357 -0.000000 -0.388717
vn 0.809017 0.000000 -0.587785
vn 0.951057 0.000000 0.309017
vn 0.996383 0.000000 0.084974
vn 0.809017 0.000000 0.587785
vn 0.587786 0.000001 0.809017
vn 0.309016 0.000003 0.951057
vn 0.128790 0.000003 0.991672
vn -0.156428 0.000000 0.987689
vn -0.156428 0.000000 0.987689
vn -0.156428 0.000000 0.987689
vn -0.156428 0.000000 0.987689
vn -0.156428 0.000000 0.987689
vn -0.809017 0.000000 0.587785
vn -0.629532 -0.000001 0.776974
vn -0.951057 0.000000 0.309017
vn -1.000000 0.000000 -0.000000
vn -0.951057 0.000000 -0.309016
vn -0.809017 0.000000 -0.587785
vn -0.587786 0.000000 -0.809016
vn -0.309015 0.000000 -0.951057
vn 0.000000 0.000000 -1.000000
vn 0.309015 0.000000 -0.951057
vn 0.587786 0.000000 -0.809016
vn -0.421872 0.369445 0.827970
vn -0.423715 0.359059 0.831590
vn -0.440021 0.246179 0.863584
vn -0.414555 0.407674 0.813601
vn -0.453991 -0.000003 0.891007
vn -0.453991 -0.000003 0.891006
vn -0.453991 -0.000003 0.891007
vn -0.453991 -0.000003 0.891007
vn 0.887606 -0.438627 -0.140578
vn 0.799190 -0.587600 -0.126575
vn 0.799191 -0.587599 -0.126575
vn 0.887888 -0.438041 -0.140623
vn 0.987642 0.009839 -0.156421
vn 0.987642 0.009820 -0.156419
vn 0.987689 0.000000 -0.156428
vn 0.987690 -0.000000 -0.156427
vn 0.987687 0.002158 -0.156428
vn 0.987687 0.002217 -0.156427
vn 0.912899 0.381720 -0.144587
vn 0.912929 0.381646 -0.144592
vn 0.983907 0.087421 -0.155832
vn 0.983927 0.087194 -0.155837
vn 0.987689 0.000000 -0.156431
vn 0.987689 0.000000 -0.156432
vn 0.983827 0.088337 -0.155821
vn 0.987689 -0.000001 -0.156432
vn 0.913053 0.381343 -0.144610
vn 0.987688 0.001919 -0.156427
vn 0.987690 0.000000 -0.156427
vn 0.987641 0.009915 -0.156420
vn 0.889028 -0.435664 -0.140803
vn 0.799197 -0.587591 -0.126577
s 1
g SM_Pill_Label
usemtl lambert5SG
f 1/1/1 2/2/2 3/3/3 4/4/4
f 2/2/2 5/5/5 6/6/6 3/3/3
f 5/5/5 7/7/7 8/8/8 6/6/6
f 7/7/7 9/9/9 10/10/10 8/8/8
f 9/9/9 11/11/11 12/12/12 10/10/10
f 11/11/11 13/13/13 14/14/14 12/12/12
f 13/13/13 15/15/15 16/16/16 14/14/14
f 15/15/15 17/17/17 18/18/18 16/16/16
f 17/17/17 19/19/19 20/20/20 18/18/18
f 19/19/19 21/21/21 22/22/22 20/20/20
f 21/21/21 23/23/23 24/24/24 22/22/22
f 23/23/23 25/25/25 26/26/26 24/24/24
f 25/25/25 27/27/27 28/28/28 26/26/26
f 27/27/27 161/29/29 162/30/30 163/31/31 164/32/32 165/33/33 158/34/34 29/35/35 30/36/36 28/28/28
f 29/35/35 31/37/37 32/38/38 30/36/36
f 31/37/37 33/39/39 34/40/40 32/38/38
f 33/39/39 35/41/41 36/42/42 34/40/40
f 35/41/41 37/43/43 38/44/44 36/42/42
f 37/43/43 39/45/45 40/46/46 38/44/44
f 4/4/4 3/3/3 41/47/47 42/48/48
f 3/3/3 6/6/6 43/49/49 41/47/47
f 6/6/6 8/8/8 44/50/50 43/49/49
f 8/8/8 10/10/10 45/51/51 44/50/50
f 10/10/10 12/12/12 46/52/52 45/51/51
f 12/12/12 14/14/14 47/53/53 46/52/52
f 14/14/14 16/16/16 48/54/54 47/53/53
f 16/16/16 18/18/18 49/55/55 48/54/54
f 18/18/18 20/20/20 50/56/56 49/55/55
f 20/20/20 22/22/22 51/57/57 50/56/56
f 22/22/22 24/24/24 52/58/58 51/57/57
f 24/24/24 26/26/26 53/59/59 52/58/58
f 26/26/26 28/28/28 54/60/60 53/59/59
f 28/28/28 30/36/36 55/61/61 54/60/60
f 30/36/36 32/38/38 56/62/62 55/61/61
f 32/38/38 34/40/40 57/63/63 56/62/62
f 34/40/40 36/42/42 58/64/64 57/63/63
f 36/42/42 38/44/44 59/65/65 58/64/64
f 38/44/44 40/46/46 60/66/66 59/65/65
f 61/67/67 62/68/68 120/69/69 121/70/70
f 62/68/68 63/71/71 138/72/72 120/69/69
f 63/71/71 64/73/73 137/74/74 138/72/72
f 64/73/73 65/75/75 136/76/76 137/74/74
f 65/75/75 66/77/77 135/78/78 136/76/76
f 66/77/77 67/79/79 134/80/80 135/78/78
f 67/79/79 68/81/81 133/82/82 134/80/80
f 68/81/81 69/83/83 132/84/84 133/82/82
f 69/83/83 70/85/85 131/86/86 132/84/84
f 70/85/85 71/87/87 130/88/88 131/86/86
f 71/87/87 72/89/89 129/90/90 130/88/88
f 72/89/89 73/91/91 128/92/92 129/90/90
f 159/93/93 160/94/94 74/95/95 127/96/96
f 74/95/95 75/97/97 126/98/98 127/96/96
f 75/97/97 76/99/99 125/100/100 126/98/98
f 76/99/99 77/101/101 124/102/102 125/100/100
f 77/101/101 78/103/103 123/104/104 124/102/102
f 78/103/103 79/105/105 122/106/106 123/104/104
f 80/107/107 81/108/108 100/109/109 101/110/110
f 82/111/111 80/107/107 101/110/110 102/112/112
f 83/113/113 82/111/111 102/112/112 103/114/114
f 84/115/115 83/113/113 103/114/114 104/116/116
f 85/117/117 84/115/115 104/116/116 105/118/118
f 86/119/119 85/117/117 105/118/118 106/120/120
f 87/121/121 86/119/119 106/120/120 107/122/122
f 88/123/123 87/121/121 107/122/122 108/124/124
f 89/125/125 88/123/123 108/124/124 109/126/126
f 90/127/127 89/125/125 109/126/126 110/128/128
f 91/129/129 90/127/127 110/128/128 111/130/130
f 92/131/131 91/129/129 111/130/130 112/132/132
f 93/133/133 92/131/131 112/132/132 113/134/134
f 94/135/135 93/133/133 113/134/134 114/136/136
f 95/137/137 94/135/135 114/136/136 115/138/138
f 96/139/139 95/137/137 115/138/138 116/140/140
f 97/141/141 96/139/139 116/140/140 117/142/142
f 98/143/143 97/141/141 117/142/142 118/144/144
f 99/145/145 98/143/143 118/144/144 119/146/146
f 42/48/48 41/47/47 101/110/110 100/109/109
f 41/47/47 43/49/49 102/112/112 101/110/110
f 43/49/49 44/50/50 103/114/114 102/112/112
f 44/50/50 45/51/51 104/116/116 103/114/114
f 45/51/51 46/52/52 105/118/118 104/116/116
f 46/52/52 47/53/53 106/120/120 105/118/118
f 47/53/53 48/54/54 107/122/122 106/120/120
f 48/54/54 49/55/55 108/124/124 107/122/122
f 49/55/55 50/56/56 109/126/126 108/124/124
f 50/56/56 51/57/57 110/128/128 109/126/126
f 51/57/57 52/58/58 111/130/130 110/128/128
f 52/58/58 53/59/59 112/132/132 111/130/130
f 53/59/59 54/60/60 113/134/134 112/132/132
f 54/60/60 55/61/61 114/136/136 113/134/134
f 55/61/61 56/62/62 115/138/138 114/136/136
f 56/62/62 57/63/63 116/140/140 115/138/138
f 57/63/63 58/64/64 117/142/142 116/140/140
f 58/64/64 59/65/65 118/144/144 117/142/142
f 59/65/65 60/66/66 119/146/146 118/144/144
f 2/2/2 1/1/1 121/70/70 120/69/69
f 39/45/45 37/43/43 123/104/104 122/106/106
f 37/43/43 35/41/41 124/102/102 123/104/104
f 35/41/41 33/39/39 125/100/100 124/102/102
f 33/39/39 31/37/37 126/98/98 125/100/100
f 31/37/37 29/35/35 127/96/96 126/98/98
f 29/35/35 158/34/34 159/93/93 127/96/96
f 25/25/25 23/23/23 129/90/90 128/92/92
f 23/23/23 21/21/21 130/88/88 129/90/90
f 21/21/21 19/19/19 131/86/86 130/88/88
f 19/19/19 17/17/17 132/84/84 131/86/86
f 17/17/17 15/15/15 133/82/82 132/84/84
f 15/15/15 13/13/13 134/80/80 133/82/82
f 13/13/13 11/11/11 135/78/78 134/80/80
f 11/11/11 9/9/9 136/76/76 135/78/78
f 9/9/9 7/7/7 137/74/74 136/76/76
f 7/7/7 5/5/5 138/72/72 137/74/74
f 5/5/5 2/2/2 120/69/69 138/72/72
f 140/147/147 139/148/148 62/68/68 61/67/67
f 142/149/149 141/150/150 79/105/105 78/103/103
f 143/151/151 142/149/149 78/103/103 77/101/101
f 144/152/152 143/151/151 77/101/101 76/99/99
f 145/153/153 144/152/152 76/99/99 75/97/97
f 146/154/154 145/153/153 75/97/97 74/95/95
f 160/94/94 166/155/155 167/156/156 168/157/157 169/158/158 170/159/159 146/154/154 74/95/95
f 148/160/160 147/161/161 73/91/91 72/89/89
f 149/162/162 148/160/160 72/89/89 71/87/87
f 150/163/163 149/162/162 71/87/87 70/85/85
f 151/164/164 150/163/163 70/85/85 69/83/83
f 152/165/165 151/164/164 69/83/83 68/81/81
f 153/166/166 152/165/165 68/81/81 67/79/79
f 154/167/167 153/166/166 67/79/79 66/77/77
f 155/168/168 154/167/167 66/77/77 65/75/75
f 156/169/169 155/168/168 65/75/75 64/73/73
f 157/170/170 156/169/169 64/73/73 63/71/71
f 139/148/148 157/170/170 63/71/71 62/68/68
f 27/27/27 25/25/25 128/92/92 171/171/171 174/172/172
f 73/91/91 172/173/173 175/174/174 171/171/171 128/92/92
f 147/161/161 173/175/175 178/176/176 177/177/177 176/178/178 172/173/173 73/91/91
f 180/181/179 179/180/180 195/179/181 196/182/182
f 196/182/182 197/183/183 181/184/184 180/181/179
f 197/183/183 198/185/185 182/186/186 181/184/184
f 198/185/185 199/187/187 183/188/188 182/186/186
f 184/189/189 183/188/188 199/187/187 200/190/190
f 200/190/190 201/191/191 185/192/192 184/189/189
f 201/191/191 202/193/193 186/194/194 185/192/192
f 188/195/195 187/196/196 140/147/147 61/67/67
f 189/197/197 188/195/195 61/67/67 121/70/70
f 1/1/1 190/198/198 189/197/197 121/70/70
f 191/199/199 190/198/198 1/1/1 4/4/4
f 192/200/200 191/199/199 4/4/4 42/48/48
f 193/201/201 192/200/200 42/48/48 100/109/109
f 81/108/108 194/202/202 193/201/201 100/109/109
f 196/182/182 195/179/181 99/145/145 119/146/146
f 60/66/66 197/183/183 196/182/182 119/146/146
f 40/46/46 198/185/185 197/183/183 60/66/66
f 39/45/45 199/187/187 198/185/185 40/46/46
f 200/190/190 199/187/187 39/45/45 122/106/106
f 79/105/105 201/191/191 200/190/190 122/106/106
f 141/150/150 202/193/193 201/191/191 79/105/105
